<svg xmlns="http://www.w3.org/2000/svg" width="1440" height="700" viewBox="0 0 1440 700" font-family="Inter, system-ui, sans-serif">
  <defs>
    <linearGradient id="mn-btn" x1="0" y1="0" x2="0" y2="1"><stop offset="0" stop-color="#4585F0"/><stop offset="1" stop-color="#2A5BBE"/></linearGradient>
    <linearGradient id="mn-nav" x1="0" y1="0" x2="1" y2="0"><stop offset="0" stop-color="#111A2C"/><stop offset="0.5" stop-color="#16243C"/><stop offset="1" stop-color="#111A2C"/></linearGradient>
    <linearGradient id="ob-btn" x1="0" y1="0" x2="0" y2="1"><stop offset="0" stop-color="#2DD4BF"/><stop offset="1" stop-color="#0E9E8E"/></linearGradient>
    <linearGradient id="ob-nav" x1="0" y1="0" x2="1" y2="0"><stop offset="0" stop-color="#0E1716"/><stop offset="0.5" stop-color="#16201E"/><stop offset="1" stop-color="#0E1716"/></linearGradient>
    <linearGradient id="gr-btn" x1="0" y1="0" x2="0" y2="1"><stop offset="0" stop-color="#7C9CFF"/><stop offset="1" stop-color="#5570D8"/></linearGradient>
    <linearGradient id="gr-nav" x1="0" y1="0" x2="1" y2="0"><stop offset="0" stop-color="#16181C"/><stop offset="0.5" stop-color="#1E2128"/><stop offset="1" stop-color="#16181C"/></linearGradient>
    <linearGradient id="pl-btn" x1="0" y1="0" x2="0" y2="1"><stop offset="0" stop-color="#A78BFA"/><stop offset="1" stop-color="#7C5CD8"/></linearGradient>
    <linearGradient id="pl-nav" x1="0" y1="0" x2="1" y2="0"><stop offset="0" stop-color="#18131F"/><stop offset="0.5" stop-color="#221A2E"/><stop offset="1" stop-color="#18131F"/></linearGradient>
  </defs>

  <rect width="1440" height="700" fill="#07090D"/>
  <text x="36" y="44" font-size="26" font-weight="700" fill="#EEF1F6">Dark theme — design directions</text>
  <text x="36" y="70" font-size="14" fill="#8A93A6">Elevated surfaces, brightened semantics, dark sidebar + dark native controls. Pick the accent character.</text>

  <!-- ===== 1 MIDNIGHT NAVY ===== -->
  <g transform="translate(36,96)">
    <rect width="324" height="560" rx="16" fill="#0C1019" stroke="#232C3E"/>
    <rect width="324" height="46" rx="16" fill="url(#mn-nav)"/><rect y="28" width="324" height="18" fill="url(#mn-nav)"/>
    <circle cx="30" cy="23" r="11" fill="#0C1019" stroke="#2E3B54"/><text x="25" y="27" font-size="11" font-weight="800" fill="#4F8FF7">C</text>
    <text x="48" y="27" font-size="12.5" font-weight="700" fill="#E4E8F1">Cognix</text><text x="100" y="27" font-size="12.5" font-weight="700" fill="#2DD4BF">HR</text>
    <!-- sidebar -->
    <rect x="0" y="46" width="104" height="514" fill="#0F1521"/><line x1="104" y1="46" x2="104" y2="560" stroke="#20293A"/>
    <rect x="10" y="60" width="84" height="28" rx="8" fill="#1C2638"/><rect x="10" y="60" width="3" height="28" fill="#4F8FF7"/>
    <text x="22" y="78" font-size="10.5" font-weight="600" fill="#9FC1FB">Dashboard</text>
    <text x="22" y="110" font-size="10.5" fill="#939DB2">Employees</text>
    <text x="22" y="138" font-size="10.5" fill="#939DB2">Payroll</text>
    <text x="22" y="166" font-size="10.5" fill="#939DB2">Reports</text>
    <!-- content -->
    <text x="120" y="78" font-size="16" font-weight="700" fill="#E4E8F1">Midnight Navy ⭐</text>
    <text x="120" y="96" font-size="10.5" fill="#8A93A6">Brand-aligned · azure + teal</text>
    <rect x="120" y="110" width="186" height="64" rx="11" fill="#141A28" stroke="#232C3E"/>
    <text x="132" y="134" font-size="10" fill="#939DB2">Total CTC</text>
    <text x="132" y="158" font-size="19" font-weight="700" fill="#E4E8F1">₹2.46 Cr</text>
    <text x="250" y="158" font-size="10" fill="#35D08A">▲ 8.2%</text>
    <rect x="120" y="186" width="120" height="36" rx="9" fill="url(#mn-btn)"/><text x="142" y="209" font-size="12" font-weight="600" fill="#FFF">Run Payroll</text>
    <rect x="250" y="186" width="56" height="36" rx="9" fill="#141A28" stroke="#2E6FE6"/><text x="262" y="209" font-size="11" fill="#6BA5FF">Export</text>
    <rect x="120" y="234" width="58" height="24" rx="12" fill="#1F2A40"/><text x="132" y="250" font-size="9.5" fill="#9FC1FB">Active</text>
    <rect x="186" y="234" width="58" height="24" rx="12" fill="rgba(45,212,191,0.16)"/><text x="196" y="250" font-size="9.5" fill="#2DD4BF">Teal</text>
    <!-- swatches -->
    <rect x="120" y="272" width="44" height="34" rx="7" fill="#4F8FF7"/><rect x="170" y="272" width="44" height="34" rx="7" fill="#2DD4BF"/><rect x="220" y="272" width="44" height="34" rx="7" fill="#141A28" stroke="#232C3E"/><rect x="270" y="272" width="36" height="34" rx="7" fill="#0C1019" stroke="#232C3E"/>
    <text x="120" y="334" font-size="11" fill="#E4E8F1" font-weight="600">Vibe: classic, trustworthy, on-brand</text>
    <text x="120" y="354" font-size="10.5" fill="#8A93A6">bg #0C1019 · primary #4F8FF7 · teal #2DD4BF</text>
    <text x="120" y="372" font-size="10.5" fill="#8A93A6">The natural dark twin of your default Blue</text>
  </g>

  <!-- ===== 2 OBSIDIAN TEAL ===== -->
  <g transform="translate(384,96)">
    <rect width="324" height="560" rx="16" fill="#0B0F0E" stroke="#21302D"/>
    <rect width="324" height="46" rx="16" fill="url(#ob-nav)"/><rect y="28" width="324" height="18" fill="url(#ob-nav)"/>
    <circle cx="30" cy="23" r="11" fill="#0B0F0E" stroke="#264640"/><text x="25" y="27" font-size="11" font-weight="800" fill="#2DD4BF">C</text>
    <text x="48" y="27" font-size="12.5" font-weight="700" fill="#E2EAE8">Cognix</text><text x="100" y="27" font-size="12.5" font-weight="700" fill="#2DD4BF">HR</text>
    <rect x="0" y="46" width="104" height="514" fill="#0E1413"/><line x1="104" y1="46" x2="104" y2="560" stroke="#1E2D2A"/>
    <rect x="10" y="60" width="84" height="28" rx="8" fill="#16302C"/><rect x="10" y="60" width="3" height="28" fill="#2DD4BF"/>
    <text x="22" y="78" font-size="10.5" font-weight="600" fill="#6FE8D6">Dashboard</text>
    <text x="22" y="110" font-size="10.5" fill="#8A9A97">Employees</text>
    <text x="22" y="138" font-size="10.5" fill="#8A9A97">Payroll</text>
    <text x="22" y="166" font-size="10.5" fill="#8A9A97">Reports</text>
    <text x="120" y="78" font-size="16" font-weight="700" fill="#E2EAE8">Obsidian Teal</text>
    <text x="120" y="96" font-size="10.5" fill="#7E908C">Near-black · teal-led (Petrol family)</text>
    <rect x="120" y="110" width="186" height="64" rx="11" fill="#141A19" stroke="#21302D"/>
    <text x="132" y="134" font-size="10" fill="#8A9A97">Total CTC</text>
    <text x="132" y="158" font-size="19" font-weight="700" fill="#E2EAE8">₹2.46 Cr</text>
    <text x="250" y="158" font-size="10" fill="#35D08A">▲ 8.2%</text>
    <rect x="120" y="186" width="120" height="36" rx="9" fill="url(#ob-btn)"/><text x="142" y="209" font-size="12" font-weight="700" fill="#06201C">Run Payroll</text>
    <rect x="250" y="186" width="56" height="36" rx="9" fill="#141A19" stroke="#2DD4BF"/><text x="262" y="209" font-size="11" fill="#5EEAD4">Export</text>
    <rect x="120" y="234" width="58" height="24" rx="12" fill="#15302B"/><text x="130" y="250" font-size="9.5" fill="#5EEAD4">Active</text>
    <rect x="186" y="234" width="58" height="24" rx="12" fill="rgba(94,234,212,0.14)"/><text x="198" y="250" font-size="9.5" fill="#5EEAD4">Mint</text>
    <rect x="120" y="272" width="44" height="34" rx="7" fill="#2DD4BF"/><rect x="170" y="272" width="44" height="34" rx="7" fill="#5EEAD4"/><rect x="220" y="272" width="44" height="34" rx="7" fill="#141A19" stroke="#21302D"/><rect x="270" y="272" width="36" height="34" rx="7" fill="#0B0F0E" stroke="#21302D"/>
    <text x="120" y="334" font-size="11" fill="#E2EAE8" font-weight="600">Vibe: sleek, techy, premium</text>
    <text x="120" y="354" font-size="10.5" fill="#7E908C">bg #0B0F0E · primary teal #2DD4BF</text>
    <text x="120" y="372" font-size="10.5" fill="#7E908C">Pairs with Petrol; buttons use dark text</text>
  </g>

  <!-- ===== 3 GRAPHITE MONO ===== -->
  <g transform="translate(732,96)">
    <rect width="324" height="560" rx="16" fill="#121316" stroke="#2A2D34"/>
    <rect width="324" height="46" rx="16" fill="url(#gr-nav)"/><rect y="28" width="324" height="18" fill="url(#gr-nav)"/>
    <circle cx="30" cy="23" r="11" fill="#121316" stroke="#33373F"/><text x="25" y="27" font-size="11" font-weight="800" fill="#7C9CFF">C</text>
    <text x="48" y="27" font-size="12.5" font-weight="700" fill="#E8E9EC">Cognix</text><text x="100" y="27" font-size="12.5" font-weight="700" fill="#7C9CFF">HR</text>
    <rect x="0" y="46" width="104" height="514" fill="#16181C"/><line x1="104" y1="46" x2="104" y2="560" stroke="#272A31"/>
    <rect x="10" y="60" width="84" height="28" rx="8" fill="#22252B"/><rect x="10" y="60" width="3" height="28" fill="#7C9CFF"/>
    <text x="22" y="78" font-size="10.5" font-weight="600" fill="#AFC0FF">Dashboard</text>
    <text x="22" y="110" font-size="10.5" fill="#9A9DA6">Employees</text>
    <text x="22" y="138" font-size="10.5" fill="#9A9DA6">Payroll</text>
    <text x="22" y="166" font-size="10.5" fill="#9A9DA6">Reports</text>
    <text x="120" y="78" font-size="16" font-weight="700" fill="#E8E9EC">Graphite Mono</text>
    <text x="120" y="96" font-size="10.5" fill="#8A8D96">Neutral charcoal · minimal accent</text>
    <rect x="120" y="110" width="186" height="64" rx="11" fill="#1B1D22" stroke="#2A2D34"/>
    <text x="132" y="134" font-size="10" fill="#9A9DA6">Total CTC</text>
    <text x="132" y="158" font-size="19" font-weight="700" fill="#E8E9EC">₹2.46 Cr</text>
    <text x="250" y="158" font-size="10" fill="#35D08A">▲ 8.2%</text>
    <rect x="120" y="186" width="120" height="36" rx="9" fill="url(#gr-btn)"/><text x="142" y="209" font-size="12" font-weight="600" fill="#0B1020">Run Payroll</text>
    <rect x="250" y="186" width="56" height="36" rx="9" fill="#1B1D22" stroke="#3A3E47"/><text x="262" y="209" font-size="11" fill="#C0C5D0">Export</text>
    <rect x="120" y="234" width="58" height="24" rx="12" fill="#262932"/><text x="130" y="250" font-size="9.5" fill="#AFC0FF">Active</text>
    <rect x="186" y="234" width="58" height="24" rx="12" fill="#22252B"/><text x="196" y="250" font-size="9.5" fill="#C0C5D0">Tag</text>
    <rect x="120" y="272" width="44" height="34" rx="7" fill="#7C9CFF"/><rect x="170" y="272" width="44" height="34" rx="7" fill="#C0C5D0"/><rect x="220" y="272" width="44" height="34" rx="7" fill="#1B1D22" stroke="#2A2D34"/><rect x="270" y="272" width="36" height="34" rx="7" fill="#121316" stroke="#2A2D34"/>
    <text x="120" y="334" font-size="11" fill="#E8E9EC" font-weight="600">Vibe: understated, focused, pro</text>
    <text x="120" y="354" font-size="10.5" fill="#8A8D96">bg #121316 · accent indigo #7C9CFF</text>
    <text x="120" y="372" font-size="10.5" fill="#8A8D96">Most neutral — lets data colours lead</text>
  </g>

  <!-- ===== 4 DEEP PLUM ===== -->
  <g transform="translate(1080,96)">
    <rect width="324" height="560" rx="16" fill="#14101C" stroke="#2E2740"/>
    <rect width="324" height="46" rx="16" fill="url(#pl-nav)"/><rect y="28" width="324" height="18" fill="url(#pl-nav)"/>
    <circle cx="30" cy="23" r="11" fill="#14101C" stroke="#3E335A"/><text x="25" y="27" font-size="11" font-weight="800" fill="#A78BFA">C</text>
    <text x="48" y="27" font-size="12.5" font-weight="700" fill="#ECE6F2">Cognix</text><text x="100" y="27" font-size="12.5" font-weight="700" fill="#A78BFA">HR</text>
    <rect x="0" y="46" width="104" height="514" fill="#18131F"/><line x1="104" y1="46" x2="104" y2="560" stroke="#2A2338"/>
    <rect x="10" y="60" width="84" height="28" rx="8" fill="#251D33"/><rect x="10" y="60" width="3" height="28" fill="#A78BFA"/>
    <text x="22" y="78" font-size="10.5" font-weight="600" fill="#C4B5FD">Dashboard</text>
    <text x="22" y="110" font-size="10.5" fill="#9C90AE">Employees</text>
    <text x="22" y="138" font-size="10.5" fill="#9C90AE">Payroll</text>
    <text x="22" y="166" font-size="10.5" fill="#9C90AE">Reports</text>
    <text x="120" y="78" font-size="16" font-weight="700" fill="#ECE6F2">Deep Plum</text>
    <text x="120" y="96" font-size="10.5" fill="#8E82A0">Aubergine · violet (Pastel/Bordeaux kin)</text>
    <rect x="120" y="110" width="186" height="64" rx="11" fill="#1E1828" stroke="#2E2740"/>
    <text x="132" y="134" font-size="10" fill="#9C90AE">Total CTC</text>
    <text x="132" y="158" font-size="19" font-weight="700" fill="#ECE6F2">₹2.46 Cr</text>
    <text x="250" y="158" font-size="10" fill="#35D08A">▲ 8.2%</text>
    <rect x="120" y="186" width="120" height="36" rx="9" fill="url(#pl-btn)"/><text x="142" y="209" font-size="12" font-weight="600" fill="#150A28">Run Payroll</text>
    <rect x="250" y="186" width="56" height="36" rx="9" fill="#1E1828" stroke="#A78BFA"/><text x="262" y="209" font-size="11" fill="#C4B5FD">Export</text>
    <rect x="120" y="234" width="58" height="24" rx="12" fill="#2A2240"/><text x="130" y="250" font-size="9.5" fill="#C4B5FD">Active</text>
    <rect x="186" y="234" width="58" height="24" rx="12" fill="rgba(196,181,253,0.14)"/><text x="196" y="250" font-size="9.5" fill="#C4B5FD">Lilac</text>
    <rect x="120" y="272" width="44" height="34" rx="7" fill="#A78BFA"/><rect x="170" y="272" width="44" height="34" rx="7" fill="#C4B5FD"/><rect x="220" y="272" width="44" height="34" rx="7" fill="#1E1828" stroke="#2E2740"/><rect x="270" y="272" width="36" height="34" rx="7" fill="#14101C" stroke="#2E2740"/>
    <text x="120" y="334" font-size="11" fill="#ECE6F2" font-weight="600">Vibe: moody, creative, distinctive</text>
    <text x="120" y="354" font-size="10.5" fill="#8E82A0">bg #14101C · accent violet #A78BFA</text>
    <text x="120" y="372" font-size="10.5" fill="#8E82A0">The dark companion to Pastel Twilight</text>
  </g>
</svg>
